<?xml version="1.0" encoding="utf-8"?>
<!-- Generator: Adobe Illustrator 26.0.2, SVG Export Plug-In . SVG Version: 6.00 Build 0)  -->
<svg version="1.1" id="Layer_1" xmlns="http://www.w3.org/2000/svg" xmlns:xlink="http://www.w3.org/1999/xlink" x="0px" y="0px"
	 viewBox="0 0 144 144" style="enable-background:new 0 0 144 144;" xml:space="preserve">
<g>
	<path d="M124.82,84.61c-0.32,0.96-0.58,1.88-0.92,2.77c-1.28,3.29-3.12,6.22-5.82,8.54c-3.29,2.84-7.12,3.95-11.42,3.34
		c-3.55-0.5-6.42-2.27-8.79-4.91c-2.25-2.51-3.82-5.4-4.79-8.62c-0.1-0.32-0.2-0.64-0.33-1.04c0.87,0,1.67-0.02,2.48,0.01
		c0.38,0.01,0.53-0.09,0.62-0.48c2.14-8.91,4.31-17.82,6.47-26.74c0.82-3.4,1.64-6.81,2.46-10.21c0.03-0.12,0.05-0.24,0.09-0.44
		c-3.11,1.07-6.16,2.12-9.24,3.18c1.67,7.25,0.48,13.98-3.75,20.09c-3.2,4.61-7.53,7.75-12.89,9.4c-5.93,1.82-11.76,1.44-17.4-1.13
		c-5.63-2.57-9.68-6.76-12.31-12.4c-0.57,0.2-1.14,0.39-1.7,0.59c-3.05,1.05-6.1,2.1-9.15,3.14c-0.3,0.1-0.37,0.22-0.29,0.54
		c2.03,8.3,4.04,16.59,6.05,24.89c1.17,4.82,2.34,9.64,3.5,14.47c0.08,0.33,0.19,0.45,0.54,0.44c0.83-0.03,1.66-0.01,2.51-0.01
		c-0.01,0.11,0,0.17-0.02,0.22c-1.16,4.03-3.05,7.65-6.15,10.55c-3.27,3.06-7.15,4.38-11.62,3.84c-3.66-0.44-6.6-2.2-9.04-4.88
		c-2.38-2.62-3.98-5.68-4.96-9.08c-0.06-0.22-0.13-0.43-0.22-0.72c0.39,0,0.73,0,1.08,0c0.5,0,1.01-0.02,1.51,0.01
		c0.3,0.02,0.41-0.08,0.48-0.37c0.63-2.58,1.27-5.16,1.91-7.74c1.71-6.91,3.42-13.81,5.12-20.72c0.92-3.74,1.83-7.49,2.77-11.22
		c0.08-0.31,0.04-0.53-0.1-0.8c-0.63-1.25-0.56-2.49,0.34-3.54c2.02-2.35,4.24-4.49,6.93-6.09c1.37-0.82,2.89-1.25,4.37-1.77
		c1.23-0.44,2.47-0.87,3.71-1.28c0.25-0.08,0.31-0.2,0.32-0.46c0.32-9.72,4.72-16.99,13.21-21.73c2.88-1.61,6.03-2.47,9.33-2.71
		c1.15-0.09,2.32-0.16,3.47-0.08c3.66,0.26,7.14,1.21,10.37,3c2.89,1.6,5.38,3.68,7.43,6.28c0.21,0.27,0.39,0.26,0.67,0.17
		c1.98-0.67,3.94-1.41,5.95-1.97c4.03-1.12,8.11-1.16,12.2-0.28c2.28,0.49,3.32,3.06,2.06,5.02c-0.13,0.21-0.12,0.37-0.06,0.59
		c0.32,1.22,0.62,2.44,0.93,3.66c0.9,3.63,1.8,7.26,2.7,10.89c2.09,8.45,4.19,16.89,6.27,25.34c0.08,0.34,0.2,0.47,0.57,0.46
		C123.09,84.59,123.91,84.61,124.82,84.61z M44.4,109.99c-3.17-13.05-6.33-26.08-9.49-39.1c-0.04,0-0.09,0-0.13,0.01
		c-3.22,13.02-6.45,26.03-9.69,39.1C31.55,109.99,37.94,109.99,44.4,109.99z M108.75,45.54c-0.04,0-0.09,0-0.13,0
		c-3.16,13.03-6.32,26.06-9.48,39.08c6.45,0,12.85,0,19.29,0C115.19,71.55,111.97,58.55,108.75,45.54z M97.53,87.97
		c0.06,0.16,0.09,0.25,0.13,0.34c1.12,2.12,2.53,4,4.42,5.5c3.64,2.89,8.79,3.1,12.64,0.49c2.13-1.44,3.67-3.39,4.92-5.61
		c0.13-0.24,0.25-0.48,0.38-0.72C112.52,87.97,105.05,87.97,97.53,87.97z M23.49,113.32c0.03,0.07,0.04,0.13,0.07,0.18
		c1.11,2.12,2.49,4.02,4.36,5.55c3.71,3.04,9.1,3.24,13.01,0.47c1.98-1.41,3.46-3.25,4.64-5.35c0.15-0.26,0.28-0.52,0.45-0.85
		C38.48,113.32,31.01,113.32,23.49,113.32z M84.09,54.36c-0.13-2.7-0.55-5.31-1.34-7.92c-3.09,0.62-6.19,0.9-9.31,1
		c0,2.33,0,4.62,0,6.91C77,54.36,80.53,54.36,84.09,54.36z M59.44,54.35c3.57,0,7.11,0,10.64,0c0-2.31,0-4.6,0-6.91
		c-3.14-0.09-6.23-0.4-9.32-1C60.01,49.04,59.55,51.66,59.44,54.35z M82.76,65.59c0.77-2.6,1.2-5.21,1.33-7.91
		c-3.58,0-7.1,0-10.64,0c0,2.31,0,4.59,0,6.9C76.59,64.68,79.68,64.99,82.76,65.59z M70.09,57.7c-3.57,0-7.1,0-10.63,0
		c-0.03,1.97,0.81,6.83,1.36,7.88c3.05-0.6,6.14-0.9,9.27-1C70.09,62.27,70.09,59.99,70.09,57.7z M73.45,67.89c0,3.1,0,6.13,0,9.25
		c4.23-1.38,6.38-4.67,8.18-8.4C78.88,68.22,76.18,67.97,73.45,67.89z M61.81,68.75c0.76,1.28,1.41,2.51,2.18,3.65
		c1.21,1.79,2.72,3.28,4.72,4.2c0.43,0.2,0.9,0.34,1.38,0.52c0-3.13,0-6.16,0-9.23C67.35,67.97,64.65,68.22,61.81,68.75z
		 M73.44,34.87c0,3.16,0,6.21,0,9.28c2.74-0.07,5.44-0.33,8.14-0.84c-0.05-0.13-0.07-0.21-0.11-0.29c-0.62-1.11-1.19-2.25-1.89-3.31
		c-1.07-1.62-2.41-3.01-4.15-3.96C74.82,35.42,74.14,35.17,73.44,34.87z M70.09,34.94c-1.58,0.4-2.88,1.21-4.03,2.28
		c-1.83,1.7-3.11,3.78-4.14,6.08c2.73,0.5,5.42,0.77,8.17,0.84C70.09,41.07,70.09,38.04,70.09,34.94z M57.45,45.68
		c-1.12-0.42-2.23-0.84-3.36-1.24c-0.07-0.03-0.25,0.11-0.31,0.22c-1.41,2.21-2.38,4.61-2.88,7.18c-0.16,0.82-0.26,1.66-0.39,2.54
		c0.22,0,0.36,0,0.49,0c1.55,0,3.1,0,4.65,0c0.5,0,0.47,0,0.52-0.49c0.16-1.53,0.29-3.06,0.52-4.58
		C56.87,48.1,57.19,46.9,57.45,45.68z M86.05,45.66c0.01,0.08,0,0.14,0.02,0.2c0.75,2.68,1.18,5.41,1.29,8.19
		c0.01,0.26,0.11,0.34,0.36,0.34c1.65-0.01,3.3,0,4.95-0.01c0.09,0,0.17-0.02,0.29-0.03c-0.01-0.19,0-0.37-0.04-0.54
		c-0.19-1.08-0.34-2.17-0.6-3.23c-0.51-2.11-1.41-4.06-2.55-5.91c-0.16-0.26-0.3-0.29-0.57-0.17c-0.4,0.19-0.81,0.34-1.23,0.49
		C87.35,45.22,86.7,45.44,86.05,45.66z M92.94,57.68c-0.12-0.01-0.22-0.02-0.32-0.02c-1.61,0-3.23,0.01-4.84-0.01
		c-0.32,0-0.41,0.1-0.42,0.41c-0.1,2.57-0.5,5.11-1.14,7.6c-0.06,0.24-0.12,0.47-0.18,0.69c1.21,0.44,2.37,0.85,3.53,1.27
		C91.19,65.64,93.11,60.01,92.94,57.68z M53.96,67.62c1.17-0.42,2.33-0.84,3.51-1.27c-0.01-0.08-0.02-0.17-0.04-0.25
		c-0.74-2.63-1.15-5.31-1.26-8.04c-0.01-0.34-0.13-0.42-0.45-0.41c-1.57,0.02-3.15,0.01-4.72,0.01c-0.13,0-0.27,0-0.4,0
		C50.37,59.86,52.31,65.59,53.96,67.62z M94.62,46.87c4.77-1.64,9.53-3.28,14.3-4.92c-2.09-0.56-4.18-0.68-6.29-0.54
		c-2.38,0.15-4.67,0.74-6.9,1.56c-0.85,0.31-1.71,0.6-2.56,0.9C93.65,44.87,94.12,45.84,94.62,46.87z M34.53,67.46
		c0.02,0.03,0.04,0.05,0.06,0.08c4.52-1.56,9.03-3.11,13.54-4.66c-0.24-1.07-0.47-2.1-0.7-3.16c-1,0.34-1.98,0.66-2.94,1.02
		c-1.31,0.49-2.64,0.92-3.89,1.54c-1.49,0.73-2.72,1.86-3.91,3.01C35.94,65.99,35.24,66.74,34.53,67.46z M85.04,69.52
		c-0.93,1.7-1.83,3.35-2.72,4.97c1.88-1.08,3.6-2.45,5.16-4.14C86.6,70.05,85.79,69.77,85.04,69.52z M58.48,69.52
		c-0.75,0.25-1.57,0.53-2.45,0.82c1.57,1.7,3.28,3.07,5.16,4.14C60.32,72.87,59.42,71.24,58.48,69.52z M61.2,37.54
		c-1.87,1.09-3.6,2.44-5.16,4.15c0.89,0.3,1.7,0.57,2.45,0.82C59.42,40.81,60.31,39.16,61.2,37.54z M82.33,37.55
		c0.89,1.63,1.79,3.28,2.71,4.97c0.76-0.26,1.58-0.54,2.45-0.83C85.92,39.98,84.2,38.62,82.33,37.55z"/>
	<path d="M70.11,88.84c0-1.66,0-3.29,0-4.96c0.16-0.01,0.28-0.02,0.4-0.02c0.82,0,1.64,0.02,2.46-0.01
		c0.38-0.01,0.46,0.12,0.45,0.47c-0.02,1.36-0.01,2.72-0.01,4.09c0,0.14,0,0.27,0,0.42c5.88,0.72,10.49,3.49,13.66,8.49
		c2.34,3.7,3.15,7.78,2.53,12.1c-0.66,4.52-2.78,8.28-6.29,11.22c-3.72,3.11-8.06,4.51-12.86,4.18c-3.97-0.28-7.53-1.78-10.54-4.44
		c-3.32-2.93-5.37-6.6-5.98-10.99c-0.71-5.08,0.51-9.7,3.7-13.73C60.8,91.64,65,89.42,70.11,88.84z M86.5,106.77
		c-0.02-8.1-6.68-14.74-14.77-14.7c-8.17,0.04-14.76,6.65-14.71,14.87c0.05,8.26,6.89,14.69,14.96,14.61
		C79.93,121.46,86.52,114.8,86.5,106.77z"/>
	<path d="M73.39,19.99c0,2.73,0,5.43,0,8.16c-1.09,0-2.17,0-3.26,0c0-2.72,0-5.43,0-8.16C71.22,19.99,72.28,19.99,73.39,19.99z"/>
	<path d="M70.11,115c-1.39,0-2.72,0-4.07,0c0-1.1,0-2.17,0-3.29c0.16,0,0.3,0,0.45,0c2.02,0,4.03,0.01,6.05,0
		c0.98,0,1.68-0.73,1.66-1.68c-0.02-0.87-0.74-1.55-1.7-1.58c-0.53-0.02-1.06,0-1.59,0c-2.42-0.01-4.52-1.82-4.83-4.17
		c-0.34-2.53,1.13-4.81,3.55-5.46c0.37-0.1,0.53-0.23,0.48-0.63c-0.04-0.38-0.01-0.77-0.01-1.18c1.11,0,2.18,0,3.29,0
		c0,0.52,0,1.03,0,1.6c1.38,0,2.72,0,4.08,0c0,1.12,0,2.18,0,3.3c-0.15,0-0.28,0-0.42,0c-1.98,0-3.96,0-5.94,0
		c-0.51,0-0.98,0.12-1.34,0.5c-0.48,0.51-0.61,1.11-0.34,1.75c0.27,0.65,0.79,0.99,1.51,1.02c0.82,0.03,1.65-0.02,2.45,0.09
		c2.27,0.32,4.01,2.32,4.1,4.62c0.09,2.32-1.48,4.44-3.73,4.97c-0.3,0.07-0.39,0.19-0.37,0.48c0.02,0.34,0,0.68,0.01,1.02
		c0.01,0.22-0.05,0.32-0.29,0.32c-0.91-0.01-1.82-0.01-2.72,0c-0.24,0-0.3-0.1-0.29-0.32C70.12,115.91,70.11,115.49,70.11,115z"/>
</g>
</svg>
