<?xml version="1.0" standalone="no"?>
<!DOCTYPE svg PUBLIC "-//W3C//DTD SVG 20010904//EN"
 "http://www.w3.org/TR/2001/REC-SVG-20010904/DTD/svg10.dtd">
<svg version="1.0" xmlns="http://www.w3.org/2000/svg"
 width="550.000000pt" height="550.000000pt" viewBox="0 0 550.000000 550.000000"
 preserveAspectRatio="xMidYMid meet">

<g transform="translate(0.000000,550.000000) scale(0.100000,-0.100000)"
fill="#000000" stroke="none">
<path d="M4805 5478 c-14 -13 -59 -94 -101 -183 -41 -88 -77 -161 -78 -163 -2
-1 -83 -15 -180 -31 -203 -32 -226 -43 -226 -114 0 -38 7 -47 130 -172 96 -97
130 -137 130 -155 0 -14 -11 -90 -25 -170 -32 -186 -32 -214 0 -245 42 -43 75
-34 248 61 l157 86 154 -86 c178 -99 208 -106 250 -55 14 17 26 38 26 48 0 9
-13 98 -30 197 l-29 179 108 110 c138 141 161 170 161 205 0 16 -11 41 -23 56
-22 25 -37 29 -202 55 -98 16 -182 32 -186 36 -4 4 -39 78 -78 163 -75 163
-103 200 -151 200 -16 0 -41 -10 -55 -22z m104 -393 c58 -123 62 -126 209
-145 50 -7 92 -16 92 -19 0 -4 -32 -38 -71 -76 -103 -102 -104 -105 -84 -228
9 -56 19 -110 22 -120 4 -14 -20 -5 -101 38 -124 66 -119 66 -244 -5 -48 -27
-88 -47 -90 -45 -2 1 4 43 12 91 28 158 28 157 -69 261 l-84 91 97 12 c144 19
150 22 208 145 27 57 50 104 51 105 2 0 25 -47 52 -105z"/>
<path d="M3093 4845 c-245 -53 -433 -287 -433 -535 0 -144 52 -269 158 -381
l62 -67 -52 -30 c-115 -65 -229 -194 -287 -324 -60 -133 -61 -144 -61 -723 l0
-528 -70 -73 c-94 -96 -95 -117 -9 -209 l61 -65 -15 -37 -15 -38 -90 -3 c-87
-3 -92 -4 -116 -33 l-26 -31 0 -204 c0 -274 -1 -273 150 -283 l84 -6 15 -38
14 -37 -62 -64 c-94 -99 -95 -97 97 -288 191 -191 190 -191 286 -98 35 33 68
60 75 60 7 0 25 -7 41 -15 29 -15 30 -18 30 -90 0 -148 12 -155 284 -155 l204
0 31 26 c29 24 30 29 33 116 l3 90 38 15 38 15 58 -55 c60 -57 94 -74 134 -63
12 3 89 73 172 156 143 143 150 152 150 190 0 35 -7 47 -61 102 l-61 63 14 37
15 36 89 4 c81 3 91 5 116 31 l28 27 0 221 0 221 -28 24 c-25 21 -38 24 -113
24 l-85 0 -19 42 -19 43 65 66 c38 40 64 76 64 89 0 33 -24 71 -84 130 l-56
54 0 514 c0 579 -3 607 -70 750 -65 137 -141 224 -264 304 -33 21 -61 40 -63
41 -1 2 26 32 60 68 72 75 121 168 142 266 18 86 18 130 0 218 -44 211 -199
371 -411 425 -89 23 -153 24 -241 5z m267 -204 c48 -25 130 -88 130 -100 0 -4
-39 3 -87 15 -137 36 -298 31 -453 -12 l-25 -7 20 23 c27 30 91 73 140 93 61
26 215 19 275 -12z m-25 -256 c39 -8 107 -33 153 -55 75 -37 82 -44 82 -70 0
-98 -95 -227 -208 -282 -60 -30 -76 -33 -152 -33 -74 0 -93 4 -152 32 -36 17
-85 50 -108 73 -44 44 -94 140 -104 202 l-7 37 83 41 c136 67 270 85 413 55z
m-326 -957 c-43 -173 -76 -322 -72 -333 10 -33 201 -312 225 -329 28 -20 67
-21 94 -2 35 25 224 319 224 349 0 21 -121 526 -146 610 -8 27 24 21 116 -24
151 -73 261 -213 296 -378 10 -50 14 -164 14 -482 l0 -416 -30 5 c-26 4 -39
-5 -98 -61 l-67 -66 -43 19 -42 19 0 85 c0 75 -3 88 -24 113 l-24 28 -221 0
-221 0 -27 -28 c-26 -25 -28 -35 -31 -116 l-4 -89 -36 -15 -37 -14 -62 60
c-51 50 -68 61 -97 61 l-36 1 0 425 c0 344 3 437 15 489 39 166 169 314 332
380 89 37 89 54 2 -291z m246 -139 l38 -155 -42 -63 -43 -63 -42 63 -42 63 40
163 c22 89 43 159 47 155 4 -4 24 -77 44 -163z m45 -978 c0 -60 4 -74 25 -99
14 -17 40 -34 58 -37 17 -4 65 -22 106 -41 41 -19 85 -34 98 -34 15 0 44 18
77 50 29 28 57 50 62 50 12 0 124 -112 124 -124 0 -5 -22 -33 -50 -62 -58 -61
-61 -82 -26 -152 13 -26 32 -73 42 -105 26 -85 56 -107 145 -107 l69 0 0 -89
0 -89 -75 -4 c-90 -4 -105 -16 -139 -109 -13 -35 -33 -83 -45 -106 -34 -68
-29 -96 31 -159 l52 -55 -64 -64 -64 -65 -51 49 c-68 68 -86 70 -182 28 -43
-19 -95 -40 -115 -47 -60 -19 -78 -50 -78 -136 l0 -74 -90 0 -90 0 0 63 c0 96
-20 127 -100 153 -36 11 -88 33 -117 47 -29 15 -62 27 -73 27 -12 0 -47 -25
-81 -57 l-60 -57 -66 67 -67 66 57 60 c31 33 57 68 57 79 0 11 -15 53 -34 93
-18 41 -41 96 -51 123 -21 58 -55 76 -145 76 l-60 0 0 90 0 90 74 0 c88 0 120
19 136 82 6 22 27 73 47 114 43 91 40 110 -28 179 l-49 51 65 64 64 64 55 -52
c65 -62 90 -65 174 -23 31 15 80 36 108 45 74 24 86 42 92 131 l5 75 88 0 89
0 0 -69z"/>
<path d="M3130 2009 c-134 -23 -276 -131 -333 -252 -130 -278 38 -598 341
-649 358 -60 639 318 482 647 -88 184 -289 288 -490 254z m213 -212 c162 -95
186 -315 47 -440 -57 -53 -103 -70 -181 -71 -157 -1 -273 116 -272 274 0 36 7
81 15 101 24 55 87 119 143 146 70 34 181 29 248 -10z"/>
<path d="M893 4295 c-245 -53 -433 -287 -433 -535 0 -144 52 -269 158 -381
l62 -67 -52 -30 c-115 -65 -229 -194 -287 -324 -60 -133 -61 -144 -61 -723 l0
-528 -70 -73 c-94 -96 -95 -117 -9 -209 l61 -65 -15 -37 -15 -38 -90 -3 c-87
-3 -92 -4 -116 -33 l-26 -31 0 -204 c0 -274 -1 -273 150 -283 l84 -6 15 -38
14 -37 -62 -64 c-94 -99 -95 -97 97 -288 191 -191 190 -191 286 -98 35 33 68
60 75 60 7 0 25 -7 41 -15 29 -15 30 -18 30 -84 0 -37 5 -82 11 -100 19 -55
44 -61 273 -61 l204 0 31 26 c29 24 30 29 33 116 l3 90 38 15 38 15 58 -55
c60 -57 94 -74 133 -63 13 3 90 73 173 156 143 143 150 152 150 190 0 35 -7
47 -61 102 l-61 63 14 37 15 36 89 4 c81 3 91 5 116 31 l28 27 0 221 0 221
-28 24 c-25 21 -38 24 -113 24 l-85 0 -19 42 -19 43 65 66 c38 40 64 76 64 89
0 33 -24 71 -84 130 l-56 54 0 514 c0 579 -3 607 -70 750 -65 137 -141 224
-264 304 -33 21 -61 40 -63 41 -1 2 26 32 60 68 95 99 157 246 157 374 0 196
-129 404 -303 490 -123 60 -241 77 -364 50z m267 -204 c51 -27 130 -88 130
-101 0 -6 -12 -5 -27 1 -132 50 -339 51 -513 3 l-25 -7 20 23 c27 30 91 73
140 93 61 26 215 19 275 -12z m-25 -256 c39 -8 107 -33 153 -55 75 -37 82 -44
82 -70 0 -98 -95 -227 -208 -282 -60 -30 -76 -33 -152 -33 -74 0 -93 4 -152
32 -36 17 -85 50 -108 73 -44 44 -94 140 -104 202 l-7 37 83 41 c136 67 270
85 413 55z m-326 -957 c-43 -173 -76 -322 -72 -333 10 -33 201 -312 225 -329
28 -20 67 -21 94 -2 35 25 224 319 224 349 0 21 -121 526 -146 610 -8 27 24
21 116 -24 151 -73 261 -213 296 -378 10 -50 14 -164 14 -482 l0 -416 -30 5
c-26 4 -39 -5 -98 -61 l-67 -66 -43 19 -42 19 0 85 c0 75 -3 88 -24 113 l-24
28 -221 0 -221 0 -27 -28 c-26 -25 -28 -35 -31 -116 l-4 -89 -36 -15 -37 -14
-62 60 c-51 50 -68 61 -97 61 l-36 1 0 425 c0 470 4 503 63 614 60 112 180
219 294 261 77 28 78 44 -8 -297z m246 -139 l38 -155 -42 -63 -43 -63 -42 63
-42 63 40 163 c22 89 43 159 47 155 4 -4 24 -77 44 -163z m45 -978 c0 -60 4
-74 25 -99 14 -17 40 -34 58 -37 17 -4 65 -22 106 -41 41 -19 85 -34 98 -34
15 0 44 18 77 50 29 28 57 50 62 50 12 0 124 -112 124 -124 0 -5 -22 -33 -50
-62 -58 -61 -61 -82 -26 -152 13 -26 32 -73 42 -105 26 -85 56 -107 145 -107
l69 0 0 -89 0 -88 -76 -5 c-91 -6 -104 -17 -138 -109 -13 -35 -33 -83 -45
-106 -34 -68 -29 -96 31 -159 l52 -55 -64 -64 -64 -65 -51 49 c-70 69 -85 71
-194 22 -50 -23 -98 -41 -107 -41 -8 0 -29 -13 -45 -29 -27 -27 -29 -35 -29
-105 l0 -76 -90 0 -90 0 0 63 c0 95 -20 126 -100 152 -36 12 -88 34 -117 49
-29 14 -62 26 -73 26 -12 0 -47 -25 -81 -57 l-60 -57 -66 67 -67 66 57 60 c31
33 57 68 57 79 0 11 -15 53 -34 93 -18 41 -41 96 -51 123 -21 58 -55 76 -145
76 l-60 0 0 90 0 90 74 0 c88 0 120 19 136 82 6 22 27 73 47 114 43 91 40 110
-28 179 l-49 51 65 64 64 64 55 -52 c65 -62 90 -65 174 -23 31 15 80 36 108
45 74 24 86 42 92 131 l5 75 88 0 89 0 0 -69z"/>
<path d="M930 1459 c-134 -23 -276 -131 -333 -252 -130 -278 38 -598 341 -649
246 -41 483 133 522 385 47 303 -226 568 -530 516z m198 -205 c174 -87 206
-318 62 -447 -57 -53 -103 -70 -181 -71 -156 -1 -272 116 -272 274 0 77 17
122 70 180 81 90 215 117 321 64z"/>
<path d="M4812 4017 c-26 -15 -322 -502 -322 -530 0 -30 27 -72 55 -85 14 -7
70 -12 125 -12 l100 0 0 -870 0 -870 -185 0 -185 0 0 -90 0 -90 249 0 249 0
26 31 26 31 0 929 0 929 104 0 c98 0 106 2 135 26 56 47 49 68 -114 341 -80
133 -155 249 -167 258 -27 18 -65 19 -96 2z m112 -360 c25 -43 46 -80 46 -82
0 -3 -49 -5 -110 -5 -60 0 -110 2 -110 5 0 3 24 46 52 95 40 69 55 87 64 77 6
-6 32 -47 58 -90z"/>
</g>
</svg>
