<?xml version="1.0" encoding="utf-8"?>
<!-- Generator: Adobe Illustrator 26.0.2, SVG Export Plug-In . SVG Version: 6.00 Build 0)  -->
<svg version="1.1" id="Layer_1" xmlns="http://www.w3.org/2000/svg" xmlns:xlink="http://www.w3.org/1999/xlink" x="0px" y="0px"
	 viewBox="0 0 144 144" style="enable-background:new 0 0 144 144;" xml:space="preserve">
<g>
	<path d="M125.67,69.25c0,2.02,0,4.04,0,6.05c-0.13,0.99-0.26,1.99-0.37,2.98c-1.24,10.8-5.43,20.31-12.45,28.6
		c-0.26,0.3-0.5,0.62-0.8,1c0.63,0.26,1.14,0.46,1.65,0.68c3.43,1.49,5.57,4.03,5.96,7.77c0.24,2.31,0.1,4.65,0.18,6.97
		c0.03,1.04-0.31,1.82-1.26,2.31c-18.44,0-36.87,0-55.31,0c-0.34-0.42-0.83-0.79-0.99-1.26c-0.4-1.2,0.52-2.09,2.08-2.09
		c8.49,0,16.97,0,25.46,0c0.41,0,0.81,0,1.25,0c0-2.36,0.12-4.59-0.03-6.81c-0.22-3.32-1.88-5.78-4.97-7.12
		c-2.52-1.09-5.09-2.04-7.62-3.09c-0.56-0.23-0.87-0.09-1.25,0.31c-1.04,1.13-2.11,2.22-3.17,3.32c-1.26,1.29-2.03,1.3-3.34,0.02
		c-1.12-1.09-2.26-2.17-3.35-3.29c-0.39-0.4-0.72-0.49-1.27-0.27c-2.51,1.02-5.04,1.97-7.56,2.98c-1.74,0.7-3.06,1.89-3.97,3.54
		c-1.81,3.29-0.87,6.85-1.14,10.42c1.78,0,3.41-0.01,5.03,0c0.95,0.01,1.59,0.43,1.78,1.41c0.18,0.95-0.43,1.46-1.1,1.94
		c-11.06,0-22.12,0-33.19,0c-0.73-0.43-1.22-1.02-1.22-1.92c0.01-2.16-0.08-4.32,0.05-6.47c0.26-4.26,2.42-7.21,6.41-8.8
		c0.41-0.16,0.81-0.35,1.31-0.57c-0.4-0.48-0.74-0.86-1.06-1.26c-10.04-12.2-14.08-26.16-12.06-41.8
		C20.7,54.25,25,44.93,32.07,36.98c10.25-11.52,23.14-17.62,38.55-18.2c8.51-0.32,16.66,1.4,24.36,5.05
		c2.38,1.13,4.62,2.55,6.89,3.89c0.97,0.58,1.21,1.58,0.7,2.41c-0.5,0.82-1.46,0.99-2.48,0.44c-0.24-0.13-0.47-0.3-0.71-0.43
		c-1.84-1.04-3.64-2.2-5.55-3.09c-2.39-1.12-4.89-2.01-7.34-3.01c-0.04,0.09-0.09,0.18-0.13,0.26c6.57,5.77,10.45,13.23,13.36,21.5
		c4.21-1.16,8.33-2.3,12.64-3.48c-0.37-0.52-0.52-0.79-0.73-1.01c-2.11-2.25-4.21-4.53-6.37-6.73c-1.18-1.2-1.49-2.1-0.75-2.94
		c0.78-0.89,1.74-0.77,3.05,0.46c1.32,1.24,2.66,2.46,3.88,3.79c6.82,7.41,11.27,16.05,13.18,25.95
		C125.08,64.29,125.32,66.78,125.67,69.25z M70.55,51.74c-7.88-0.66-15.61-1.3-23.45-1.96c-1.88,6.63-2.83,13.56-2.96,20.62
		c0.21,0.04,0.31,0.07,0.41,0.07c5.49,0,10.98,0.01,16.48-0.01c0.33,0,0.74-0.19,0.99-0.42c2.2-2.16,4.8-3.5,7.86-3.98
		c0.25-0.04,0.64-0.44,0.64-0.68C70.56,60.82,70.55,56.23,70.55,51.74z M100.33,70.43c-0.15-7.13-1.08-14.07-2.97-20.63
		c-7.89,0.65-15.63,1.29-23.4,1.94c0,4.64,0,9.39,0,14.16c0.23,0.07,0.42,0.15,0.62,0.18c3.12,0.37,5.74,1.73,8.01,3.87
		c0.31,0.29,0.83,0.52,1.25,0.52c5.18,0.04,10.36,0.02,15.53,0.02C99.68,70.49,99.98,70.45,100.33,70.43z M40.62,70.44
		c0.32-3.64,0.5-7.25,1.01-10.81c0.51-3.59,1.35-7.14,2.03-10.59c-4.48-1.27-8.97-2.54-13.54-3.84c-4.85,7.6-7.52,16.02-7.87,25.24
		C28.42,70.44,34.52,70.44,40.62,70.44z M122.24,70.45c-0.37-9.27-3.02-17.7-7.86-25.26c-4.62,1.31-9.11,2.59-13.71,3.89
		c1.96,6.92,2.85,14.09,3.07,21.37C109.97,70.45,116.04,70.45,122.24,70.45z M73.99,22.26c0,8.68,0,17.21,0,25.8
		c7.5-0.07,14.88-0.61,22.41-1.85c-1.07-2.45-1.98-4.82-3.11-7.07c-2.78-5.53-6.24-10.52-11.52-14
		C79.42,23.58,76.87,22.56,73.99,22.26z M48.18,46.23c7.49,1.21,14.87,1.78,22.31,1.82c0-8.66,0-17.19,0-25.79
		c-3.79,0.41-6.99,2-9.81,4.35C54.47,31.79,50.93,38.68,48.18,46.23z M44.11,73.88c0.04,0.82,0.13,1.55,0.09,2.26
		c-0.04,0.84,0.22,1.15,1.11,1.33c4.46,0.89,7.53,3.5,8.78,7.9c0.49,1.73,0.39,3.63,0.61,5.45c0.05,0.41,0.17,0.89,0.43,1.2
		c2.5,2.92,1.22,6.95-2.52,7.93c-0.29,0.08-0.65,0.31-0.76,0.57c-0.7,1.69-1.8,3.03-3.29,4.08c-0.75,0.53-0.64,1.18,0.21,1.53
		c1.25,0.52,2.52,0.98,3.76,1.53c0.53,0.23,0.83,0.06,1.28-0.25c1.18-0.84,2.37-1.71,3.68-2.29c2.53-1.13,5.16-2.04,7.73-3.1
		c0.41-0.17,0.92-0.53,1.04-0.91c0.21-0.66,0.04-1.29-0.7-1.75c-1.79-1.11-3.08-2.69-3.83-4.67c-0.27-0.72-0.65-1.05-1.45-1.2
		c-2.12-0.4-3.55-1.7-4.17-3.78c-0.62-2.07-0.11-3.88,1.33-5.49c0.33-0.37,0.57-0.94,0.58-1.43c0.06-2.39-0.11-4.8,0.66-7.13
		c0.19-0.58,0.39-1.15,0.61-1.77C54.21,73.88,49.24,73.88,44.11,73.88z M85.39,73.89c0.22,0.63,0.42,1.18,0.61,1.73
		c0.82,2.36,0.6,4.8,0.66,7.23c0.01,0.41,0.14,0.92,0.4,1.2c1.6,1.64,2.16,3.54,1.48,5.73c-0.67,2.15-2.21,3.36-4.41,3.81
		c-0.36,0.07-0.8,0.43-0.93,0.76c-0.86,2.17-2.23,3.92-4.21,5.15c-0.72,0.45-0.56,1.08-0.48,1.65c0.04,0.3,0.44,0.66,0.75,0.79
		c2.4,1,4.87,1.86,7.23,2.95c1.52,0.7,2.89,1.74,4.35,2.58c0.3,0.17,0.77,0.29,1.07,0.18c1.31-0.44,2.6-0.96,3.88-1.5
		c0.31-0.13,0.75-0.45,0.75-0.68c0-0.33-0.28-0.76-0.57-0.97c-1.34-1-2.34-2.24-3.05-3.76c-0.17-0.35-0.63-0.7-1.02-0.8
		c-3.39-0.85-4.85-4.93-2.61-7.6c0.55-0.66,0.73-1.27,0.69-2.06c-0.1-2.14,0.07-4.24,0.97-6.22c1.67-3.63,4.47-5.83,8.38-6.65
		c0.31-0.07,0.81-0.31,0.84-0.52c0.13-0.98,0.13-1.98,0.18-3.01C95.33,73.89,90.43,73.89,85.39,73.89z M51.27,110.77
		c-1.14-0.46-2.18-0.83-3.18-1.29c-0.57-0.26-0.93-0.2-1.35,0.27c-0.76,0.86-1.57,1.68-2.38,2.49c-1,0.99-1.87,1-2.89,0.03
		c-0.88-0.84-1.72-1.73-2.64-2.53c-0.25-0.21-0.76-0.35-1.06-0.24c-2.02,0.74-4.03,1.51-6.02,2.34c-1.62,0.68-2.88,1.9-3.21,3.61
		c-0.41,2.19-0.45,4.44-0.66,6.72c7.56,0,14.8,0,22.08,0C50.24,118.36,49.44,114.5,51.27,110.77z M116.32,122.22
		c0-1.85,0.1-3.62-0.03-5.37c-0.18-2.43-1.51-4.14-3.74-5.1c-1.88-0.81-3.81-1.51-5.69-2.31c-0.56-0.24-0.88-0.1-1.26,0.31
		c-0.77,0.85-1.57,1.67-2.38,2.48c-1,0.99-1.87,1-2.89,0.03c-0.88-0.84-1.73-1.71-2.63-2.53c-0.22-0.2-0.64-0.41-0.87-0.33
		c-1.17,0.4-2.32,0.89-3.26,1.26c0.33,2,0.76,3.85,0.91,5.73c0.15,1.92,0.03,3.86,0.03,5.82
		C101.88,122.22,109.07,122.22,116.32,122.22z M22.26,73.91c0.18,5.16,1.11,10.11,2.81,14.93c2.26,6.42,5.71,12.11,10.3,17.12
		c0.23,0.25,0.72,0.47,1,0.39c0.49-0.14,0.91-0.51,1.36-0.79c-0.26-0.4-0.49-0.83-0.79-1.2c-0.91-1.16-1.89-2.28-2.74-3.47
		c-0.33-0.46-0.5-0.84-1.17-0.99c-3.32-0.74-4.79-4.73-2.68-7.4c0.65-0.82,0.85-1.6,0.79-2.55c-0.02-0.38-0.01-0.77,0-1.15
		c0.11-4.27,1.86-7.67,5.55-9.89c1.25-0.76,2.71-1.17,4.2-1.79c-0.05-0.96-0.11-2.06-0.17-3.2C34.52,73.91,28.42,73.91,22.26,73.91z
		 M103.61,77.16c0.13,0.12,0.15,0.16,0.18,0.17c0.23,0.07,0.47,0.14,0.7,0.19c3.67,0.8,6.29,2.94,7.95,6.29
		c1.07,2.16,1.11,4.48,1.14,6.82c0.01,0.52,0.23,1.15,0.57,1.55c2.27,2.7,0.96,6.88-2.48,7.72c-0.59,0.14-0.88,0.38-1.1,0.91
		c-0.61,1.48-1.61,2.65-2.88,3.63c-0.33,0.25-0.72,0.82-0.63,1.12c0.1,0.34,0.66,0.65,1.08,0.75c0.3,0.07,0.79-0.13,1.01-0.37
		c6.39-7.03,10.53-15.2,12.24-24.55c0.45-2.44,0.65-4.92,0.97-7.45c-6.32,0-12.42,0-18.59,0C103.71,75.03,103.66,76.1,103.61,77.16z
		 M64.29,84.9c0,2.04-0.05,4.19,0.02,6.34c0.06,1.94,0.96,3.52,2.39,4.8c2.28,2.03,5.02,2.06,7.78,1.65
		c2.86-0.42,4.92-2.12,5.61-4.91c0.47-1.88,0.31-3.92,0.45-5.89c0.11-1.52,0.08-2.78-1.65-3.67c-1.17-0.6-1.95-1.99-2.75-2.86
		c-1.83,0.95-3.63,2.1-5.59,2.85C68.57,83.97,66.43,84.34,64.29,84.9z M32.18,42.35c4.31,1.18,8.43,2.31,12.6,3.44
		c2.9-8.3,6.8-15.7,13.5-21.63C47.34,27.24,37.79,34.51,32.18,42.35z M61.46,81.65c0.4-0.09,0.73-0.2,1.07-0.24
		c0.34-0.05,0.7-0.02,1.04-0.06c4.53-0.5,8.73-1.67,11.77-5.43c0.97-1.21,2.44-0.85,3.01,0.62c0.26,0.68,0.51,1.37,0.84,2.01
		c0.86,1.64,2.15,2.73,4.04,3.05c0.71-7.31-4.5-12.34-10.91-12.33C65.89,69.28,60.73,74.35,61.46,81.65z M95.64,92.87
		c0,1.7-0.13,3.31,0.05,4.89c0.11,0.99,0.54,2.03,1.11,2.85c1.45,2.09,3.69,2.25,5.99,2.09c2.94-0.2,5.06-2.34,5.15-5.27
		c0.04-1.46,0.02-2.92,0-4.38c0-0.25-0.1-0.56-0.27-0.72c-1.02-0.92-2.07-1.81-3.2-2.78C102.02,91.49,98.95,92.4,95.64,92.87z
		 M36.77,92.87c0,1.69-0.06,3.25,0.01,4.81c0.1,2.2,1.56,4.16,3.65,4.71c1.15,0.3,2.41,0.33,3.61,0.27
		c2.81-0.13,4.92-2.34,5.02-5.15c0.05-1.49,0.03-2.99,0.01-4.49c0-0.24-0.11-0.56-0.28-0.71c-1.02-0.92-2.06-1.8-3.18-2.77
		C43.14,91.5,40.08,92.41,36.77,92.87z M51.29,89.6c0.11-3.32-0.94-6.04-3.74-7.72c-3.14-1.88-6.46-1.87-9.54,0.16
		c-2.65,1.74-3.65,4.4-3.48,7.6c4.1-0.24,7.83-1.06,10.58-4.37c0.91-1.1,2.35-0.74,2.9,0.61c0.23,0.58,0.42,1.18,0.73,1.72
		C49.27,88.54,49.97,89.34,51.29,89.6z M93.38,89.62c4.05-0.23,7.76-1.01,10.5-4.27c1.01-1.2,2.45-0.88,3.01,0.59
		c0.21,0.55,0.4,1.12,0.69,1.62c0.56,0.97,1.26,1.82,2.58,2.01c0.11-3.23-0.9-5.92-3.63-7.63c-3.11-1.95-6.43-1.95-9.54,0.01
		C94.26,83.67,93.25,86.36,93.38,89.62z M75,101.19c-1.8,0-3.51,0-5.19,0c-0.8,2.47,1.37,3.18,2.56,4.65
		C73.28,104.23,75.57,103.61,75,101.19z M41.18,106.09c-0.39,1.6,1.03,1.92,1.75,2.98c0.47-1.18,2.03-1.48,1.71-2.98
		C43.45,106.09,42.35,106.09,41.18,106.09z M100.05,106.09c-0.38,1.57,1.01,1.94,1.78,2.97c0.45-1.18,2.03-1.48,1.69-2.97
		C102.3,106.09,101.23,106.09,100.05,106.09z M60.78,86.22c-1,0.21-1.49,0.78-1.54,1.77c-0.05,1.05,0.43,1.71,1.54,2.06
		C60.78,88.77,60.78,87.5,60.78,86.22z M83.95,90.12c1.02-0.39,1.5-1.06,1.48-2.06c-0.02-0.94-0.44-1.62-1.48-1.91
		C83.95,87.49,83.95,88.76,83.95,90.12z M33.01,96.17c0.09-0.01,0.19-0.03,0.28-0.04c0-0.58,0-1.15,0-1.73
		c-0.09,0-0.19,0.01-0.28,0.01C33.01,95,33.01,95.58,33.01,96.17z M92.21,94.26c-0.79,0.93-0.76,1.37,0,1.91
		C92.21,95.58,92.21,95,92.21,94.26z"/>
</g>
</svg>
